<svg xmlns="http://www.w3.org/2000/svg" width="128" height="128" xml:space="preserve"><path fill="#282D33" d="M31.669 128H.403V23.138h76.794V54.47h-4V27.138H4.402V124h27.267z"/><path fill="#282D33" d="M63.185 33.581h4v21.427h-4zM29.091 34.282h18.701v4H29.091zM31.669 116.855H10.417V33.581h4v79.274h17.252z"/><path fill="#282D33" d="M58.562 39.274h-4V18.177C54.562 10.36 48.287 4 40.574 4h-3.547c-7.714 0-13.991 6.36-13.991 14.177v21.097h-4V18.177C19.036 8.154 27.106 0 37.026 0h3.547c9.918 0 17.988 8.154 17.988 18.177v21.097zM127.598 128H37.001V60.008h90.596V128zm-86.597-4h82.596V64.008H41.001V124z"/><path fill="#282D33" d="M83.404 98.011h-2.211c-9.92 0-17.99-8.153-17.99-18.176v-8.938h4v8.938c0 7.817 6.275 14.177 13.99 14.177h2.211c7.713 0 13.988-6.359 13.988-14.177v-8.938h4.002v8.938c.001 10.022-8.07 18.176-17.99 18.176zM40.784 111.867h83.449v4H40.784z"/></svg>