<svg xmlns="http://www.w3.org/2000/svg" width="128" height="128" xml:space="preserve"><path fill="#282D33" d="M104.689 89.608c-7.229 0-13.11-5.817-13.11-12.968s5.881-12.969 13.11-12.969S117.8 69.488 117.8 76.64c.001 7.151-5.881 12.968-13.111 12.968zm0-21.924c-5.017 0-9.098 4.019-9.098 8.957 0 4.938 4.081 8.956 9.098 8.956 5.018 0 9.1-4.019 9.1-8.956 0-4.939-4.082-8.957-9.1-8.957zM31.49 65.748c-9.606-22.522-.367-50.81 13.653-57.311a2.003 2.003 0 0 1 1.989.173c.584.406.91 1.093.855 1.804-1.208 15.427.615 32.514 5.271 49.411l-3.868 1.066c-4.386-15.918-6.32-32.021-5.646-46.845-9.726 7.937-16.88 30.626-8.563 50.128l-3.691 1.574z"/><path fill="#282D33" d="M67.333 55.399C63.26 39.115 56.69 24.072 47.805 10.688a2.005 2.005 0 0 1 1.621-3.115c15.042-.368 37.458 23.262 40.027 42.155l-3.976.541C83.391 34.924 66.415 15.41 53.463 12.076c7.971 12.841 13.94 27.067 17.763 42.35l-3.893.973zM62.914 61.96l8.503 32.257-3.88 1.023-8.503-32.257zM27.192 128l-3.345-2.216 10.597-15.996-10.48-22.708 3.643-1.681 10.949 23.724a2.004 2.004 0 0 1-.149 1.948L27.192 128z"/><path fill="#282D33" d="m96.719 127.402-3.678-13.97H36.343v-4.013h58.245c.91 0 1.708.614 1.94 1.496l4.071 15.466-3.88 1.021zM46.604.002l2.012 7.641-3.88 1.022-2.012-7.641z"/><path fill="#282D33" d="M97.092 111.48H93.08v-7.203H44.034a2.004 2.004 0 0 1-1.919-1.422L31.218 79.25l3.643-1.681 10.477 22.696h49.748c1.107 0 2.006.898 2.006 2.006v9.209z"/><g><path fill="#282D33" d="M23.577 74.772c-4.388 0-8.379-2.387-10.417-6.229l.015-.009-.026-.05.126-.075-.126.075-.198-.369.002-.001-.019-.034.002-.006c-1.098-3.175-1.851-6.393-2.236-9.565-3.583-23.535 12.438-47.603 35.719-53.59l.001.004.362-.08-.002-.008a45.538 45.538 0 0 1 10.959-1.327c20.316 0 39.445 13.034 46.517 31.695 1.02 2.464 1.861 5.211 2.484 8.12l.034.067.173.843-.006.412c.079 5.323-3.533 10.021-8.783 11.369-3.381.861-7.02.143-9.794-1.829a12.193 12.193 0 0 1-7.873 6.361c-3.493.901-7.334.156-10.237-1.931-1.506 3.23-4.409 5.688-8.027 6.618-3.512.897-7.249.188-10.114-1.825a12.215 12.215 0 0 1-7.951 6.46c-3.472.889-7.154.196-10.002-1.762a11.668 11.668 0 0 1-7.673 6.298c-.948.245-1.928.368-2.91.368zm-6.885-8.113.011.004c1.32 2.489 4.019 4.098 6.874 4.098a7.68 7.68 0 0 0 1.915-.242c3.021-.774 5.257-3.247 5.696-6.3l3.533-.99a8.316 8.316 0 0 0 8.447 2.754c3.139-.806 5.508-3.356 6.033-6.498l3.537-.934a8.308 8.308 0 0 0 8.494 2.797c3.229-.829 5.609-3.465 6.062-6.713l3.578-.945a8.295 8.295 0 0 0 6.537 3.236c.702 0 1.402-.089 2.083-.265 3.092-.793 5.447-3.319 6.003-6.438l3.563-.873c1.86 2.409 5.123 3.538 8.107 2.778 3.391-.87 5.816-4.017 5.766-7.481l.001-.055-.056-.157c-.578-2.773-1.367-5.383-2.348-7.754C94.011 19.488 76.425 7.52 57.74 7.52a41.53 41.53 0 0 0-9.991 1.209l-.245.056-.001-.003-.044.013c-21.384 5.5-36.074 27.554-32.785 49.173a42.613 42.613 0 0 0 2.018 8.691z"/></g></svg>