<svg xmlns="http://www.w3.org/2000/svg" width="128" height="128" xml:space="preserve"><path fill="#282D33" d="M2.834 92.457 0 89.643 48.728 40.55l24.705 24.899-2.835 2.813-21.871-22.043z"/><path fill="#282D33" d="m55.676 69.912-7.693-4.547-7.693 4.547-7.688-4.547-6.679 3.948-2.031-3.438 8.711-5.149 7.688 4.547 7.692-4.547 7.692 4.547 7.587-4.488 9.612 4.58-1.718 3.604-7.692-3.664zM4.545 29.203c-.046-.337-.107-.85-.107-1.411 0-4.977 3.648-9.111 8.396-9.84 2.133-6.16 7.893-10.347 14.477-10.347a15.31 15.31 0 0 1 10.58 4.277c6.265-.82 12.118 3.171 13.941 8.985 4.037-.086 7.378 3.237 7.378 7.303 0 .39-.051.73-.092 1.003l-3.957-.538.008-.051c.021-.137.048-.272.048-.414 0-1.826-1.468-3.311-3.271-3.311-.298 0-.619.06-1.011.188l-2.257.742-.342-2.351c-.729-5.001-5.631-8.582-10.714-7.459l-1.137.25-.777-.865c-2.154-2.394-5.215-3.767-8.398-3.767-5.229 0-9.758 3.583-11.013 8.711l-.372 1.522-1.689-.003c-3.157.002-5.805 2.676-5.805 5.963 0 .245.021.512.07.867l-3.956.546zM128 120.395H61.739l33.134-33.381L128 120.395zm-56.671-3.993h47.082l-23.538-23.72-23.544 23.72zM80.501 45.848l-3.218-2.366a8.293 8.293 0 0 1 5.125-3.228c1.808-4.911 6.459-8.231 11.762-8.231 3.155 0 6.199 1.213 8.512 3.361 5.724-.637 10.771 3.358 11.638 8.977l-3.946.608c-.577-3.742-4.086-6.35-7.957-5.499l-1.135.25-.777-.863a8.553 8.553 0 0 0-6.334-2.841c-3.941 0-7.356 2.702-8.305 6.57l-.372 1.521h-1.566a4.205 4.205 0 0 0-3.427 1.741z"/><path fill="#282D33" d="M113.025 45.164h-3.979l3.447-.979c.155-.044.298-.083.443-.109l.587-.104v1.095l-.498.097zM17.729 119.805l-2.833-2.813 33.466-33.719 12.57 12.663 35.123-35.391 23.651 23.832-2.835 2.814-20.816-20.978-35.123 35.391-12.57-12.663zM18.428 38.309h15.796v3.993H18.428zM7.708 38.309h6.205v3.993H7.708zM65.821 21.255h6.204v3.993h-6.204zM78.795 21.255h6.208v3.993h-6.208z"/><g><path fill="#282D33" d="M91.772 21.255h6.206v3.993h-6.206z"/></g></svg>