<svg xmlns="http://www.w3.org/2000/svg" width="128" height="128" xml:space="preserve"><path fill="#282D33" d="M65.68 51.825H10.534L.413 35.542l10.121-16.285H65.68v32.568zm-52.923-4H61.68V23.257H12.757L5.123 35.542l7.634 12.283z"/><path fill="#282D33" d="M74.924 88.504h-4V4H57.078v10.823h-4V0h21.846zM53.078 55.856h4v32.648h-4zM81.617 105.836H46.383V93.448h35.234v12.388zm-31.234-4h27.234v-4.388H50.383v4.388z"/><path fill="#282D33" d="M117.469 38.55h-43.34v-4h41.115l7.635-12.287-7.635-12.283H74.129v-4h43.338l10.121 16.283z"/><path fill="#282D33" d="M74.129 20.267h32.127v4H74.129zM22.964 33.542h30.937v4H22.964z"/><g><path fill="#282D33" d="M86.607 101.836h35.695v4H86.607z"/></g><g><path fill="#282D33" d="M5.697 101.836h35.696v4H5.697z"/></g><g><path fill="#282D33" d="M28.306 112.617h35.695v4H28.306z"/></g><g><path fill="#282D33" d="M45.58 124h18.421v4H45.58z"/></g><g><path fill="#282D33" d="M71.139 112.617h22.607v4H71.139z"/></g></svg>